<?xml version="1.0" encoding="UTF-8" standalone="no"?>
<!DOCTYPE svg PUBLIC "-//W3C//DTD SVG 1.1//EN"
 "http://www.w3.org/Graphics/SVG/1.1/DTD/svg11.dtd">
<!-- Generated by graphviz version 14.1.4 (20260321.0153)
 -->
<!-- Title: jumproutes Pages: 1 -->
<svg width="2627pt" height="616pt"
 viewBox="0.00 0.00 2627.00 616.00" xmlns="http://www.w3.org/2000/svg" xmlns:xlink="http://www.w3.org/1999/xlink">
<g id="graph0" class="graph" transform="scale(1 1) rotate(0) translate(4 612.25)">
<title>jumproutes</title>
<polygon fill="#1a1a2e" stroke="none" points="-4,4 -4,-612.25 2622.75,-612.25 2622.75,4 -4,4"/>
<!-- 911133 -->
<g id="node1" class="node">
<title>911133</title>
<polygon fill="#d7bde2" stroke="#cccccc" points="252.25,-608.25 0,-608.25 0,-572.25 252.25,-572.25 252.25,-608.25"/>
<text xml:space="preserve" text-anchor="middle" x="126.12" y="-587.7" font-family="Courier,monospace" font-size="9.00" fill="#222222">911133\n(&#45;35,15,&#45;27)pc\nA0WD\nSkharri Pride ★</text>
</g>
<!-- 914272 -->
<g id="node2" class="node">
<title>914272</title>
<polygon fill="#ffffff" stroke="#cccccc" points="233.88,-526.5 18.38,-526.5 18.38,-490.5 233.88,-490.5 233.88,-526.5"/>
<text xml:space="preserve" text-anchor="middle" x="126.12" y="-505.2" font-family="Courier,monospace" font-size="9.00" fill="#222222">914272\n(&#45;34,16,&#45;27)pc\nG2V\nunclaimed</text>
</g>
<!-- 911133&#45;&#45;914272 -->
<g id="edge1" class="edge">
<title>911133&#45;&#45;914272</title>
<path fill="none" stroke="#888888" d="M126.12,-571.95C126.12,-558.57 126.12,-540.14 126.12,-526.77"/>
<text xml:space="preserve" text-anchor="middle" x="132.88" y="-546.65" font-family="Courier,monospace" font-size="8.00" fill="#aaaaaa">1.5</text>
</g>
<!-- 917145 -->
<g id="node3" class="node">
<title>917145</title>
<polygon fill="#ffffff" stroke="#cccccc" points="233.88,-444.75 18.38,-444.75 18.38,-408.75 233.88,-408.75 233.88,-444.75"/>
<text xml:space="preserve" text-anchor="middle" x="126.12" y="-423.45" font-family="Courier,monospace" font-size="9.00" fill="#222222">917145\n(&#45;33,17,&#45;28)pc\nG3V\nunclaimed</text>
</g>
<!-- 914272&#45;&#45;917145 -->
<g id="edge2" class="edge">
<title>914272&#45;&#45;917145</title>
<path fill="none" stroke="#888888" d="M126.12,-490.2C126.12,-476.82 126.12,-458.39 126.12,-445.02"/>
<text xml:space="preserve" text-anchor="middle" x="132.88" y="-464.9" font-family="Courier,monospace" font-size="8.00" fill="#aaaaaa">1.7</text>
</g>
<!-- 917781 -->
<g id="node4" class="node">
<title>917781</title>
<polygon fill="#ffffff" stroke="#cccccc" points="233.88,-363 18.38,-363 18.38,-327 233.88,-327 233.88,-363"/>
<text xml:space="preserve" text-anchor="middle" x="126.12" y="-341.7" font-family="Courier,monospace" font-size="9.00" fill="#222222">917781\n(&#45;33,19,&#45;28)pc\nG1V\nunclaimed</text>
</g>
<!-- 917145&#45;&#45;917781 -->
<g id="edge3" class="edge">
<title>917145&#45;&#45;917781</title>
<path fill="none" stroke="#888888" d="M126.12,-408.45C126.12,-395.07 126.12,-376.64 126.12,-363.27"/>
<text xml:space="preserve" text-anchor="middle" x="132.88" y="-383.15" font-family="Courier,monospace" font-size="8.00" fill="#aaaaaa">1.8</text>
</g>
<!-- 918040 -->
<g id="node5" class="node">
<title>918040</title>
<polygon fill="#f9e79f" stroke="#cccccc" points="533.5,-608.25 270.75,-608.25 270.75,-572.25 533.5,-572.25 533.5,-608.25"/>
<text xml:space="preserve" text-anchor="middle" x="402.12" y="-587.7" font-family="Courier,monospace" font-size="9.00" fill="#222222">918040\n(&#45;33,&#45;14,15)pc\nK3IV\nKraathi Crusade ★</text>
</g>
<!-- 921316 -->
<g id="node6" class="node">
<title>921316</title>
<polygon fill="#ffffff" stroke="#cccccc" points="509.88,-526.5 294.38,-526.5 294.38,-490.5 509.88,-490.5 509.88,-526.5"/>
<text xml:space="preserve" text-anchor="middle" x="402.12" y="-505.2" font-family="Courier,monospace" font-size="9.00" fill="#222222">921316\n(&#45;32,&#45;15,14)pc\nK5V\nunclaimed</text>
</g>
<!-- 918040&#45;&#45;921316 -->
<g id="edge4" class="edge">
<title>918040&#45;&#45;921316</title>
<path fill="none" stroke="#888888" d="M402.12,-571.95C402.12,-558.57 402.12,-540.14 402.12,-526.77"/>
<text xml:space="preserve" text-anchor="middle" x="408.88" y="-546.65" font-family="Courier,monospace" font-size="8.00" fill="#aaaaaa">1.7</text>
</g>
<!-- 987309 -->
<g id="node7" class="node">
<title>987309</title>
<polygon fill="#f0b27a" stroke="#cccccc" points="798.62,-608.25 551.62,-608.25 551.62,-572.25 798.62,-572.25 798.62,-608.25"/>
<text xml:space="preserve" text-anchor="middle" x="675.12" y="-587.7" font-family="Courier,monospace" font-size="9.00" fill="#222222">987309\n(&#45;12,&#45;4,32)pc\nK2V\nGolvhaan Reach ★</text>
</g>
<!-- 989661 -->
<g id="node9" class="node">
<title>989661</title>
<polygon fill="#ffffff" stroke="#cccccc" points="892.25,-526.5 682,-526.5 682,-490.5 892.25,-490.5 892.25,-526.5"/>
<text xml:space="preserve" text-anchor="middle" x="787.12" y="-505.2" font-family="Courier,monospace" font-size="9.00" fill="#222222">989661\n(&#45;12,&#45;3,31)pc\nG0V\nunclaimed</text>
</g>
<!-- 987309&#45;&#45;989661 -->
<g id="edge5" class="edge">
<title>987309&#45;&#45;989661</title>
<path fill="none" stroke="#888888" d="M699.43,-571.95C718.21,-558.57 744.1,-540.14 762.87,-526.77"/>
<text xml:space="preserve" text-anchor="middle" x="744.58" y="-546.65" font-family="Courier,monospace" font-size="8.00" fill="#aaaaaa">1.1</text>
</g>
<!-- 988362 -->
<g id="node8" class="node">
<title>988362</title>
<polygon fill="#ffffff" stroke="#cccccc" points="1027.25,-608.25 817,-608.25 817,-572.25 1027.25,-572.25 1027.25,-608.25"/>
<text xml:space="preserve" text-anchor="middle" x="922.12" y="-586.95" font-family="Courier,monospace" font-size="9.00" fill="#222222">988362\n(&#45;12,&#45;2,31)pc\nM9I\nunclaimed</text>
</g>
<!-- 988362&#45;&#45;989661 -->
<g id="edge6" class="edge">
<title>988362&#45;&#45;989661</title>
<path fill="none" stroke="#888888" d="M892.83,-571.95C870.19,-558.57 838.99,-540.14 816.36,-526.77"/>
<text xml:space="preserve" text-anchor="middle" x="869.46" y="-546.65" font-family="Courier,monospace" font-size="8.00" fill="#aaaaaa">1.5</text>
</g>
<!-- 1061639 -->
<g id="node10" class="node">
<title>1061639</title>
<polygon fill="#ffffff" stroke="#cccccc" points="1266.5,-608.25 1045.75,-608.25 1045.75,-572.25 1266.5,-572.25 1266.5,-608.25"/>
<text xml:space="preserve" text-anchor="middle" x="1156.12" y="-586.95" font-family="Courier,monospace" font-size="9.00" fill="#222222">1061639\n(9,&#45;47,&#45;17)pc\nK3IV\nunclaimed</text>
</g>
<!-- 1061677 -->
<g id="node11" class="node">
<title>1061677</title>
<polygon fill="#a2d9ce" stroke="#cccccc" points="1290.12,-526.5 1022.12,-526.5 1022.12,-490.5 1290.12,-490.5 1290.12,-526.5"/>
<text xml:space="preserve" text-anchor="middle" x="1156.12" y="-505.95" font-family="Courier,monospace" font-size="9.00" fill="#222222">1061677\n(9,&#45;47,&#45;17)pc\nK0V\nShekhari Exchange ★</text>
</g>
<!-- 1061639&#45;&#45;1061677 -->
<g id="edge7" class="edge">
<title>1061639&#45;&#45;1061677</title>
<path fill="none" stroke="#888888" d="M1156.12,-571.95C1156.12,-558.57 1156.12,-540.14 1156.12,-526.77"/>
<text xml:space="preserve" text-anchor="middle" x="1162.88" y="-546.65" font-family="Courier,monospace" font-size="8.00" fill="#aaaaaa">0.0</text>
</g>
<!-- 1104168 -->
<g id="node12" class="node">
<title>1104168</title>
<polygon fill="#ffffff" stroke="#cccccc" points="1528.5,-526.5 1307.75,-526.5 1307.75,-490.5 1528.5,-490.5 1528.5,-526.5"/>
<text xml:space="preserve" text-anchor="middle" x="1418.12" y="-505.2" font-family="Courier,monospace" font-size="9.00" fill="#222222">1104168\n(22,&#45;38,&#45;16)pc\nK1V\nunclaimed</text>
</g>
<!-- 1104759 -->
<g id="node13" class="node">
<title>1104759</title>
<polygon fill="#ffffff" stroke="#cccccc" points="1527.5,-444.75 1306.75,-444.75 1306.75,-408.75 1527.5,-408.75 1527.5,-444.75"/>
<text xml:space="preserve" text-anchor="middle" x="1417.12" y="-423.45" font-family="Courier,monospace" font-size="9.00" fill="#222222">1104759\n(22,&#45;36,&#45;17)pc\nG2V\nunclaimed</text>
</g>
<!-- 1104168&#45;&#45;1104759 -->
<g id="edge8" class="edge">
<title>1104168&#45;&#45;1104759</title>
<path fill="none" stroke="#888888" d="M1417.91,-490.2C1417.74,-476.82 1417.51,-458.39 1417.34,-445.02"/>
<text xml:space="preserve" text-anchor="middle" x="1424.43" y="-464.9" font-family="Courier,monospace" font-size="8.00" fill="#aaaaaa">2.7</text>
</g>
<!-- 1111027 -->
<g id="node16" class="node">
<title>1111027</title>
<polygon fill="#ffffff" stroke="#cccccc" points="1771.12,-444.75 1545.12,-444.75 1545.12,-408.75 1771.12,-408.75 1771.12,-444.75"/>
<text xml:space="preserve" text-anchor="middle" x="1658.12" y="-423.45" font-family="Courier,monospace" font-size="9.00" fill="#222222">1111027\n(24,&#45;39,&#45;16)pc\nK6IV\nunclaimed</text>
</g>
<!-- 1104168&#45;&#45;1111027 -->
<g id="edge9" class="edge">
<title>1104168&#45;&#45;1111027</title>
<path fill="none" stroke="#888888" d="M1470.5,-490.1C1510.63,-476.76 1565.76,-458.44 1605.86,-445.12"/>
<text xml:space="preserve" text-anchor="middle" x="1559.24" y="-464.9" font-family="Courier,monospace" font-size="8.00" fill="#aaaaaa">2.1</text>
</g>
<!-- 1108516 -->
<g id="node14" class="node">
<title>1108516</title>
<polygon fill="#ffffff" stroke="#cccccc" points="1860.5,-608.25 1639.75,-608.25 1639.75,-572.25 1860.5,-572.25 1860.5,-608.25"/>
<text xml:space="preserve" text-anchor="middle" x="1750.12" y="-586.95" font-family="Courier,monospace" font-size="9.00" fill="#222222">1108516\n(23,&#45;41,&#45;19)pc\nK3V\nunclaimed</text>
</g>
<!-- 1109782 -->
<g id="node15" class="node">
<title>1109782</title>
<polygon fill="#ffffff" stroke="#cccccc" points="1768.5,-526.5 1547.75,-526.5 1547.75,-490.5 1768.5,-490.5 1768.5,-526.5"/>
<text xml:space="preserve" text-anchor="middle" x="1658.12" y="-505.2" font-family="Courier,monospace" font-size="9.00" fill="#222222">1109782\n(24,&#45;38,&#45;19)pc\nF7V\nunclaimed</text>
</g>
<!-- 1108516&#45;&#45;1109782 -->
<g id="edge10" class="edge">
<title>1108516&#45;&#45;1109782</title>
<path fill="none" stroke="#888888" d="M1730.16,-571.95C1714.73,-558.57 1693.47,-540.14 1678.05,-526.77"/>
<text xml:space="preserve" text-anchor="middle" x="1716.38" y="-546.65" font-family="Courier,monospace" font-size="8.00" fill="#aaaaaa">3.7</text>
</g>
<!-- 1111721 -->
<g id="node17" class="node">
<title>1111721</title>
<polygon fill="#ffffff" stroke="#cccccc" points="2017.75,-526.5 1786.5,-526.5 1786.5,-490.5 2017.75,-490.5 2017.75,-526.5"/>
<text xml:space="preserve" text-anchor="middle" x="1902.12" y="-505.2" font-family="Courier,monospace" font-size="9.00" fill="#222222">1111721\n(24,&#45;42,&#45;20)pc\nK8III\nunclaimed</text>
</g>
<!-- 1108516&#45;&#45;1111721 -->
<g id="edge11" class="edge">
<title>1108516&#45;&#45;1111721</title>
<path fill="none" stroke="#888888" d="M1783.11,-571.95C1808.51,-558.61 1843.49,-540.27 1868.95,-526.91"/>
<text xml:space="preserve" text-anchor="middle" x="1841.98" y="-546.65" font-family="Courier,monospace" font-size="8.00" fill="#aaaaaa">1.8</text>
</g>
<!-- 1109782&#45;&#45;1111027 -->
<g id="edge12" class="edge">
<title>1109782&#45;&#45;1111027</title>
<path fill="none" stroke="#888888" d="M1658.12,-490.2C1658.12,-476.82 1658.12,-458.39 1658.12,-445.02"/>
<text xml:space="preserve" text-anchor="middle" x="1664.88" y="-464.9" font-family="Courier,monospace" font-size="8.00" fill="#aaaaaa">3.5</text>
</g>
<!-- 1113289 -->
<g id="node18" class="node">
<title>1113289</title>
<polygon fill="#ffffff" stroke="#cccccc" points="2012.5,-444.75 1791.75,-444.75 1791.75,-408.75 2012.5,-408.75 2012.5,-444.75"/>
<text xml:space="preserve" text-anchor="middle" x="1902.12" y="-423.45" font-family="Courier,monospace" font-size="9.00" fill="#222222">1113289\n(25,&#45;43,&#45;20)pc\nG5V\nunclaimed</text>
</g>
<!-- 1111721&#45;&#45;1113289 -->
<g id="edge13" class="edge">
<title>1111721&#45;&#45;1113289</title>
<path fill="none" stroke="#888888" d="M1902.12,-490.2C1902.12,-476.82 1902.12,-458.39 1902.12,-445.02"/>
<text xml:space="preserve" text-anchor="middle" x="1908.88" y="-464.9" font-family="Courier,monospace" font-size="8.00" fill="#aaaaaa">1.0</text>
</g>
<!-- 1121397 -->
<g id="node19" class="node">
<title>1121397</title>
<polygon fill="#ffffff" stroke="#cccccc" points="2012.5,-363 1791.75,-363 1791.75,-327 2012.5,-327 2012.5,-363"/>
<text xml:space="preserve" text-anchor="middle" x="1902.12" y="-341.7" font-family="Courier,monospace" font-size="9.00" fill="#222222">1121397\n(27,&#45;42,&#45;18)pc\nK2V\nunclaimed</text>
</g>
<!-- 1113289&#45;&#45;1121397 -->
<g id="edge14" class="edge">
<title>1113289&#45;&#45;1121397</title>
<path fill="none" stroke="#888888" d="M1902.12,-408.45C1902.12,-395.07 1902.12,-376.64 1902.12,-363.27"/>
<text xml:space="preserve" text-anchor="middle" x="1908.88" y="-383.15" font-family="Courier,monospace" font-size="8.00" fill="#aaaaaa">3.2</text>
</g>
<!-- 1130253 -->
<g id="node20" class="node">
<title>1130253</title>
<polygon fill="#e74c3c" stroke="#cccccc" points="2017.75,-281.25 1786.5,-281.25 1786.5,-245.25 2017.75,-245.25 2017.75,-281.25"/>
<text xml:space="preserve" text-anchor="middle" x="1902.12" y="-259.95" font-family="Courier,monospace" font-size="9.00" fill="#222222">1130253\n(30,&#45;41,&#45;17)pc\nM3III\ncontested</text>
</g>
<!-- 1121397&#45;&#45;1130253 -->
<g id="edge15" class="edge">
<title>1121397&#45;&#45;1130253</title>
<path fill="none" stroke="#888888" d="M1902.12,-326.7C1902.12,-313.32 1902.12,-294.89 1902.12,-281.52"/>
<text xml:space="preserve" text-anchor="middle" x="1908.88" y="-301.4" font-family="Courier,monospace" font-size="8.00" fill="#aaaaaa">3.4</text>
</g>
<!-- 1156112 -->
<g id="node21" class="node">
<title>1156112</title>
<polygon fill="#ffffff" stroke="#cccccc" points="2289.5,-608.25 2068.75,-608.25 2068.75,-572.25 2289.5,-572.25 2289.5,-608.25"/>
<text xml:space="preserve" text-anchor="middle" x="2179.12" y="-586.95" font-family="Courier,monospace" font-size="9.00" fill="#222222">1156112\n(38,&#45;18,&#45;13)pc\nG0V\nunclaimed</text>
</g>
<!-- 1158355 -->
<g id="node23" class="node">
<title>1158355</title>
<polygon fill="#ffffff" stroke="#cccccc" points="2431.5,-526.5 2210.75,-526.5 2210.75,-490.5 2431.5,-490.5 2431.5,-526.5"/>
<text xml:space="preserve" text-anchor="middle" x="2321.12" y="-505.2" font-family="Courier,monospace" font-size="9.00" fill="#222222">1158355\n(38,&#45;17,&#45;10)pc\nG8V\nunclaimed</text>
</g>
<!-- 1156112&#45;&#45;1158355 -->
<g id="edge16" class="edge">
<title>1156112&#45;&#45;1158355</title>
<path fill="none" stroke="#888888" d="M2209.94,-571.95C2233.76,-558.57 2266.57,-540.14 2290.37,-526.77"/>
<text xml:space="preserve" text-anchor="middle" x="2265.38" y="-546.65" font-family="Courier,monospace" font-size="8.00" fill="#aaaaaa">2.3</text>
</g>
<!-- 1162492 -->
<g id="node24" class="node">
<title>1162492</title>
<polygon fill="#ffffff" stroke="#cccccc" points="2402.5,-444.75 2181.75,-444.75 2181.75,-408.75 2402.5,-408.75 2402.5,-444.75"/>
<text xml:space="preserve" text-anchor="middle" x="2292.12" y="-423.45" font-family="Courier,monospace" font-size="9.00" fill="#222222">1162492\n(40,&#45;19,&#45;12)pc\nF5V\nunclaimed</text>
</g>
<!-- 1156112&#45;&#45;1162492 -->
<g id="edge17" class="edge">
<title>1156112&#45;&#45;1162492</title>
<path fill="none" stroke="#888888" d="M2176.39,-572.07C2173.98,-551.12 2172.96,-515.44 2188.62,-490.5 2201.53,-469.95 2223.86,-455.17 2244.48,-445.13"/>
<text xml:space="preserve" text-anchor="middle" x="2195.38" y="-505.77" font-family="Courier,monospace" font-size="8.00" fill="#aaaaaa">2.6</text>
</g>
<!-- 1162647 -->
<g id="node25" class="node">
<title>1162647</title>
<polygon fill="#ffffff" stroke="#cccccc" points="2256.12,-363 2030.12,-363 2030.12,-327 2256.12,-327 2256.12,-363"/>
<text xml:space="preserve" text-anchor="middle" x="2143.12" y="-341.7" font-family="Courier,monospace" font-size="9.00" fill="#222222">1162647\n(40,&#45;17,&#45;14)pc\nA0WD\nunclaimed</text>
</g>
<!-- 1156112&#45;&#45;1162647 -->
<g id="edge18" class="edge">
<title>1156112&#45;&#45;1162647</title>
<path fill="none" stroke="#888888" d="M2174.82,-571.87C2173.53,-566.27 2172.17,-560.02 2171.12,-554.25 2158.38,-483.89 2148.74,-399.2 2144.92,-363.36"/>
<text xml:space="preserve" text-anchor="middle" x="2164.79" y="-464.9" font-family="Courier,monospace" font-size="8.00" fill="#aaaaaa">2.3</text>
</g>
<!-- 1157617 -->
<g id="node22" class="node">
<title>1157617</title>
<polygon fill="#e74c3c" stroke="#cccccc" points="2553.5,-608.25 2332.75,-608.25 2332.75,-572.25 2553.5,-572.25 2553.5,-608.25"/>
<text xml:space="preserve" text-anchor="middle" x="2443.12" y="-586.95" font-family="Courier,monospace" font-size="9.00" fill="#222222">1157617\n(38,&#45;19,&#45;11)pc\nF0V\ncontested</text>
</g>
<!-- 1157617&#45;&#45;1158355 -->
<g id="edge19" class="edge">
<title>1157617&#45;&#45;1158355</title>
<path fill="none" stroke="#888888" d="M2416.65,-571.95C2396.19,-558.57 2368,-540.14 2347.55,-526.77"/>
<text xml:space="preserve" text-anchor="middle" x="2396.18" y="-546.65" font-family="Courier,monospace" font-size="8.00" fill="#aaaaaa">2.5</text>
</g>
<!-- 1157617&#45;&#45;1162492 -->
<g id="edge20" class="edge">
<title>1157617&#45;&#45;1162492</title>
<path fill="none" stroke="#888888" d="M2447.83,-571.83C2452.46,-550.63 2456.69,-514.71 2440.12,-490.5 2425.23,-468.73 2401.17,-454.49 2376.73,-445.17"/>
<text xml:space="preserve" text-anchor="middle" x="2458.35" y="-505.77" font-family="Courier,monospace" font-size="8.00" fill="#aaaaaa">1.7</text>
</g>
<!-- 1158355&#45;&#45;1162492 -->
<g id="edge21" class="edge">
<title>1158355&#45;&#45;1162492</title>
<path fill="none" stroke="#888888" d="M2314.83,-490.2C2309.97,-476.82 2303.27,-458.39 2298.41,-445.02"/>
<text xml:space="preserve" text-anchor="middle" x="2315.11" y="-464.9" font-family="Courier,monospace" font-size="8.00" fill="#aaaaaa">2.8</text>
</g>
<!-- 1162492&#45;&#45;1162647 -->
<g id="edge22" class="edge">
<title>1162492&#45;&#45;1162647</title>
<path fill="none" stroke="#888888" d="M2259.79,-408.45C2234.89,-395.11 2200.6,-376.77 2175.65,-363.41"/>
<text xml:space="preserve" text-anchor="middle" x="2233.3" y="-383.15" font-family="Courier,monospace" font-size="8.00" fill="#aaaaaa">2.9</text>
</g>
<!-- 1167448 -->
<g id="node26" class="node">
<title>1167448</title>
<polygon fill="#ffffff" stroke="#cccccc" points="2358.5,-281.25 2137.75,-281.25 2137.75,-245.25 2358.5,-245.25 2358.5,-281.25"/>
<text xml:space="preserve" text-anchor="middle" x="2248.12" y="-259.95" font-family="Courier,monospace" font-size="9.00" fill="#222222">1167448\n(41,&#45;19,&#45;14)pc\nK7V\nunclaimed</text>
</g>
<!-- 1162492&#45;&#45;1167448 -->
<g id="edge23" class="edge">
<title>1162492&#45;&#45;1167448</title>
<path fill="none" stroke="#888888" d="M2287.42,-408.47C2278.95,-377.38 2261.24,-312.4 2252.8,-281.41"/>
<text xml:space="preserve" text-anchor="middle" x="2281.25" y="-342.27" font-family="Courier,monospace" font-size="8.00" fill="#aaaaaa">2.9</text>
</g>
<!-- 1162647&#45;&#45;1167448 -->
<g id="edge24" class="edge">
<title>1162647&#45;&#45;1167448</title>
<path fill="none" stroke="#888888" d="M2165.91,-326.7C2183.52,-313.32 2207.79,-294.89 2225.39,-281.52"/>
<text xml:space="preserve" text-anchor="middle" x="2208.66" y="-301.4" font-family="Courier,monospace" font-size="8.00" fill="#aaaaaa">2.4</text>
</g>
<!-- 1171693 -->
<g id="node27" class="node">
<title>1171693</title>
<polygon fill="#ffffff" stroke="#cccccc" points="2358.5,-199.5 2137.75,-199.5 2137.75,-163.5 2358.5,-163.5 2358.5,-199.5"/>
<text xml:space="preserve" text-anchor="middle" x="2248.12" y="-178.2" font-family="Courier,monospace" font-size="9.00" fill="#222222">1171693\n(43,&#45;21,&#45;16)pc\nK2V\nunclaimed</text>
</g>
<!-- 1167448&#45;&#45;1171693 -->
<g id="edge25" class="edge">
<title>1167448&#45;&#45;1171693</title>
<path fill="none" stroke="#888888" d="M2248.12,-244.95C2248.12,-231.57 2248.12,-213.14 2248.12,-199.77"/>
<text xml:space="preserve" text-anchor="middle" x="2254.88" y="-219.65" font-family="Courier,monospace" font-size="8.00" fill="#aaaaaa">2.8</text>
</g>
<!-- 1174069 -->
<g id="node29" class="node">
<title>1174069</title>
<polygon fill="#ffffff" stroke="#cccccc" points="2478.5,-117.75 2257.75,-117.75 2257.75,-81.75 2478.5,-81.75 2478.5,-117.75"/>
<text xml:space="preserve" text-anchor="middle" x="2368.12" y="-96.45" font-family="Courier,monospace" font-size="9.00" fill="#222222">1174069\n(43,&#45;23,&#45;16)pc\nG1V\nunclaimed</text>
</g>
<!-- 1171693&#45;&#45;1174069 -->
<g id="edge26" class="edge">
<title>1171693&#45;&#45;1174069</title>
<path fill="none" stroke="#888888" d="M2274.16,-163.2C2294.29,-149.82 2322.02,-131.39 2342.14,-118.02"/>
<text xml:space="preserve" text-anchor="middle" x="2322.06" y="-137.9" font-family="Courier,monospace" font-size="8.00" fill="#aaaaaa">2.3</text>
</g>
<!-- 1175680 -->
<g id="node30" class="node">
<title>1175680</title>
<polygon fill="#ffffff" stroke="#cccccc" points="2478.5,-36 2257.75,-36 2257.75,0 2478.5,0 2478.5,-36"/>
<text xml:space="preserve" text-anchor="middle" x="2368.12" y="-14.7" font-family="Courier,monospace" font-size="9.00" fill="#222222">1175680\n(44,&#45;23,&#45;16)pc\nK0V\nunclaimed</text>
</g>
<!-- 1171693&#45;&#45;1175680 -->
<g id="edge27" class="edge">
<title>1171693&#45;&#45;1175680</title>
<path fill="none" stroke="#888888" d="M2239.68,-163.33C2230.71,-142.39 2219.82,-106.72 2235.62,-81.75 2249.3,-60.14 2272.66,-45.82 2296,-36.41"/>
<text xml:space="preserve" text-anchor="middle" x="2242.38" y="-97.03" font-family="Courier,monospace" font-size="8.00" fill="#aaaaaa">2.6</text>
</g>
<!-- 1173559 -->
<g id="node28" class="node">
<title>1173559</title>
<polygon fill="#ffffff" stroke="#cccccc" points="2618.75,-199.5 2387.5,-199.5 2387.5,-163.5 2618.75,-163.5 2618.75,-199.5"/>
<text xml:space="preserve" text-anchor="middle" x="2503.12" y="-178.2" font-family="Courier,monospace" font-size="9.00" fill="#222222">1173559\n(43,&#45;25,&#45;16)pc\nM0III\nunclaimed</text>
</g>
<!-- 1173559&#45;&#45;1174069 -->
<g id="edge28" class="edge">
<title>1173559&#45;&#45;1174069</title>
<path fill="none" stroke="#888888" d="M2473.83,-163.2C2451.19,-149.82 2419.99,-131.39 2397.36,-118.02"/>
<text xml:space="preserve" text-anchor="middle" x="2450.46" y="-137.9" font-family="Courier,monospace" font-size="8.00" fill="#aaaaaa">2.1</text>
</g>
<!-- 1173559&#45;&#45;1175680 -->
<g id="edge29" class="edge">
<title>1173559&#45;&#45;1175680</title>
<path fill="none" stroke="#888888" d="M2504.74,-163.05C2505.77,-141.83 2504.46,-105.87 2487.12,-81.75 2472.06,-60.79 2447.83,-46.23 2425.16,-36.46"/>
<text xml:space="preserve" text-anchor="middle" x="2508.48" y="-97.03" font-family="Courier,monospace" font-size="8.00" fill="#aaaaaa">2.1</text>
</g>
<!-- 1174069&#45;&#45;1175680 -->
<g id="edge30" class="edge">
<title>1174069&#45;&#45;1175680</title>
<path fill="none" stroke="#888888" d="M2368.12,-81.45C2368.12,-68.07 2368.12,-49.64 2368.12,-36.27"/>
<text xml:space="preserve" text-anchor="middle" x="2374.88" y="-56.15" font-family="Courier,monospace" font-size="8.00" fill="#aaaaaa">0.5</text>
</g>
</g>
</svg>
